<?xml version="1.0" encoding="UTF-8" standalone="no"?>
<!DOCTYPE svg PUBLIC "-//W3C//DTD SVG 1.1//EN"
 "http://www.w3.org/Graphics/SVG/1.1/DTD/svg11.dtd">
<!-- Generated by graphviz version 2.38.0 (20140413.2041)
 -->
<!-- Title: G Pages: 1 -->
<svg width="180pt" height="219pt"
 viewBox="0.00 0.00 180.42 219.00" xmlns="http://www.w3.org/2000/svg" xmlns:xlink="http://www.w3.org/1999/xlink">
<g id="graph0" class="graph" transform="scale(1 1) rotate(0) translate(4 215)">
<title>G</title>
<polygon fill="white" stroke="none" points="-4,4 -4,-215 176.415,-215 176.415,4 -4,4"/>
<g id="clust1" class="cluster"><title>cluster_Global</title>
<path fill="none" stroke="gray" d="M20,-8C20,-8 152.415,-8 152.415,-8 158.415,-8 164.415,-14 164.415,-20 164.415,-20 164.415,-191 164.415,-191 164.415,-197 158.415,-203 152.415,-203 152.415,-203 20,-203 20,-203 14,-203 8,-197 8,-191 8,-191 8,-20 8,-20 8,-14 14,-8 20,-8"/>
<text text-anchor="middle" x="86.2075" y="-190.2" font-family="Times,serif" font-size="11.00" fill="gray">Global</text>
</g>
<g id="clust2" class="cluster"><title>cluster_\maccotsan</title>
<path fill="none" stroke="gray" d="M28,-16C28,-16 144.415,-16 144.415,-16 150.415,-16 156.415,-22 156.415,-28 156.415,-28 156.415,-164 156.415,-164 156.415,-170 150.415,-176 144.415,-176 144.415,-176 28,-176 28,-176 22,-176 16,-170 16,-164 16,-164 16,-28 16,-28 16,-22 22,-16 28,-16"/>
<text text-anchor="middle" x="86.2075" y="-163.2" font-family="Times,serif" font-size="11.00" fill="gray">maccotsan</text>
</g>
<g id="clust3" class="cluster"><title>cluster_\maccotsan\StringTool</title>
<path fill="none" stroke="gray" d="M36,-24C36,-24 136.415,-24 136.415,-24 142.415,-24 148.415,-30 148.415,-36 148.415,-36 148.415,-137 148.415,-137 148.415,-143 142.415,-149 136.415,-149 136.415,-149 36,-149 36,-149 30,-149 24,-143 24,-137 24,-137 24,-36 24,-36 24,-30 30,-24 36,-24"/>
<text text-anchor="middle" x="86.2075" y="-136.2" font-family="Times,serif" font-size="11.00" fill="gray">StringTool</text>
</g>
<!-- \\maccotsan\\StringTool\\GeneralSupport -->
<g id="node1" class="node"><title>\\maccotsan\\StringTool\\GeneralSupport</title>
<polygon fill="none" stroke="black" points="140.623,-122 31.7917,-122 31.7917,-86 140.623,-86 140.623,-122"/>
<text text-anchor="middle" x="86.2075" y="-100.7" font-family="Courier,monospace" font-size="11.00">GeneralSupport</text>
</g>
<!-- \\maccotsan\\StringTool\\JpSupport -->
<g id="node2" class="node"><title>\\maccotsan\\StringTool\\JpSupport</title>
<polygon fill="none" stroke="black" points="124.118,-68 48.2967,-68 48.2967,-32 124.118,-32 124.118,-68"/>
<text text-anchor="middle" x="86.2075" y="-46.7" font-family="Courier,monospace" font-size="11.00">JpSupport</text>
</g>
</g>
</svg>
